# xmcd
#
# Track frame offsets: 
#        150
#        24485
#        58457
#        84822
#        113367
#        131562
#        146867
#        165310
#        186357
#        211577
#        240860
#
# Disc length: 3773 seconds
#
# Revision: 0
# Processed by: cddbd v1.5.2PL0 Copyright (c) Steve Scherf et al.
# Submitted via: ExactAudioCopy v1.0b1
#
DISCID=870ebb0b
DTITLE=The Next Movement - Never Stop Dancing!
DYEAR=1980
DGENRE=Funk
TTITLE0=Alright Freakin'
TTITLE1=You're The One
TTITLE2=Night Stalker
TTITLE3=Sweat It Out
TTITLE4=Crazy 'Bout Your Lovin'
TTITLE5=For Lovers Only
TTITLE6=Nice and Easy
TTITLE7=How Did We Get To This (The Letter)
TTITLE8=Kid Stuff
TTITLE9=Sailin'
TTITLE10=Never Stop Dancin' (Long Version)
EXTD=
EXTT0=
EXTT1=
EXTT2=
EXTT3=
EXTT4=
EXTT5=
EXTT6=
EXTT7=
EXTT8=
EXTT9=
EXTT10=
PLAYORDER=
